<?xml version="1.0" encoding="UTF-8" standalone="no"?>
<svg
  xmlns="http://www.w3.org/2000/svg"
  width="1000"
  height="1000"
  viewBox="0 0 1000 1000"
  role="img"
  aria-labelledby="title desc">
  <title id="title">Caos Domado - Logo Stacked 1x1</title>
  <desc id="desc">Versao vertical com simbolo acima e wordmark centralizado abaixo.</desc>

  <g transform="translate(250 70) scale(0.46)">
    <path
      fill="#000000"
      fill-opacity="0.99607843"
      d="m 160.47053,495.31545 c 0.77063,-7.08118 -1.39762,-14.94669 3.80914,-32.73574 C 62.444113,234.38539 438.40538,128.86978 450.4481,349.40983 c 84.48193,54.31483 7.43991,139.02299 -11.63565,155.04648 54.46355,52.08594 34.13525,215.36074 -142.34325,203.55075 2.5,37 19.92619,75.5368 53.3616,83.85859 51.07417,9.44166 109.09309,-46.36606 111.5719,-47.10874 7.86891,-2.65178 21.68668,12.1264 13.56786,19.61367 C 281.23073,943.03977 15.500935,711.7457 160.47053,495.31545 Z M 271.04672,702.32314 C 205.15063,678.50403 170.31786,630.70067 160.74436,545.98701 110.729,633.68967 170.83752,787.13541 304.8855,796.67572 264.70557,745.55232 275.02072,727.44956 271.04672,702.32314 Z M 417.99656,522.5147 c -7.96745,2.83134 -34.82506,30.72007 -99.05438,29.92992 C 286.7929,635.69531 295.7167,681.7487 295.7167,681.7487 441.67845,693.68054 459.90514,568.82728 417.99656,522.5147 Z m -127.43489,28.03894 c -74.11622,-22.12936 -85.92058,-40.88007 -99.99947,-45.33245 -6.77922,2.2444 -12.21455,113.91327 78.2436,168.28061 0,0 -2.37143,-48.4743 21.75587,-122.94816 z M 399.7373,501.31763 c 0.0203,-2.42771 -32.37428,-31.15742 -34.87266,-28.32933 -15.57411,17.62853 -34.41884,50.98462 -34.41884,52.28563 0,6.41056 69.23998,-17.66157 69.2915,-23.9563 z m -59.01243,-40.31117 c 4.29374,-4.93185 -77.69481,-23.0678 -125.00567,21.45401 -8.30027,7.81096 53.53272,42.88607 82.0268,41.74302 9.50118,-21.90569 30.00733,-48.29774 42.97887,-63.19703 z m 81.10507,22.80689 c 55.10085,-50.08808 40.34777,-96.92503 22.34516,-105.21889 -9.83544,25.5013 -30.46745,45.90362 -59.13091,74.01102 19.92588,11.80713 36.78575,31.20787 36.78575,31.20787 z m -60.62193,-44.39488 c 34.03185,-29.66924 47.99586,-48.24002 58.35911,-75.29126 -79.56888,-26.66443 -189.18542,2.77284 -224.62422,96.74948 50.11601,-35.60931 106.04833,-43.0972 166.26511,-21.45822 z M 422.7004,335.4402 C 408.31812,206.39867 147.18967,231.34028 176.6014,427.77058 234.52486,313.33898 398.0166,323.61865 422.7004,335.4402 Z" />
    <g transform="matrix(1.1622582,0,0,1.1622582,-87.619443,-42.187139)">
      <path d="M 540,710 V 580 h 130 v 130 z" fill="#000000"/>
      <path d="M 700,550 V 420 h 130 v 130 z" fill="#000000"/>
      <path d="M 540,550 V 420 h 130 v 130 z" fill="#000000"/>
      <path d="M 700,390 V 260 h 130 v 130 z" fill="#000000"/>
      <path d="M 540,390 V 260 h 130 v 130 z" fill="#000000"/>
      <path d="M 700,710 V 580 h 130 v 130 z" fill="#000000"/>
    </g>
  </g>

  <g font-family="Montserrat, Poppins, 'Segoe UI', Arial, sans-serif" text-anchor="middle" text-rendering="geometricPrecision">
    <text x="500" y="790" font-size="118" font-weight="700" fill="#000000" letter-spacing="0.5">Caos Domado</text>
    <rect x="370" y="826" width="260" height="8" fill="#000000"/>
    <circle cx="500" cy="890" r="7" fill="#000000"/>
  </g>
</svg>

